<?xml version="1.0" encoding="UTF-8"?>
<svg version="1.1" xmlns="http://www.w3.org/2000/svg" width="512" height="512">
<path d="M0 0 C4.53806618 3.34625082 6.40224902 8.51887406 8.6875 13.5 C9.12175293 14.4283667 9.55600586 15.3567334 10.00341797 16.31323242 C13.32267216 23.43944088 16.53106216 30.61511331 19.73168945 37.79516602 C22.16843822 43.23349443 24.71016006 48.60720011 27.375 53.9375 C27.69678223 54.58178955 28.01856445 55.2260791 28.35009766 55.88989258 C29.70093351 58.5597757 31.08548367 61.1331271 32.703125 63.65234375 C34.115161 66.20846915 34.40483812 67.73070277 34.375 70.625 C34.38660156 71.75808594 34.38660156 71.75808594 34.3984375 72.9140625 C33.88849927 75.58373909 33.19725267 76.41682668 31 78 C26.82273504 79.30354368 22.58059684 79.07471565 18.25 79 C12.66717024 78.93761544 7.11637192 79.01390425 1.5390625 79.2890625 C0.43530273 79.34320313 -0.66845703 79.39734375 -1.80566406 79.453125 C-3.97742565 79.56557867 -6.14871853 79.68759361 -8.31933594 79.8203125 C-14.34710752 80.12775383 -19.23050898 79.81247799 -25 78 C-26.1640625 74.3203125 -26.1640625 74.3203125 -24.6875 71.4375 C-16.026654 63.58231409 0.80617164 63.91519827 12 64 C11.443125 63.04875244 10.88625 62.09750488 10.3125 61.11743164 C4.95802691 51.85577412 0.24197367 42.45590402 -4.03271484 32.65112305 C-5.01569207 30.40158885 -6.01687348 28.16074314 -7.01953125 25.91992188 C-7.65993964 24.46662367 -8.29930301 23.01286442 -8.9375 21.55859375 C-9.23221191 20.90120712 -9.52692383 20.2438205 -9.83056641 19.56651306 C-11.63465967 15.38513432 -12.72538856 11.55340087 -13 7 C-9.55121765 0.57812941 -7.23584064 -0.62377937 0 0 Z " fill="#000000" transform="translate(478,354)"/>
<path d="M0 0 C4.45354097 0.53625603 7.55592769 1.66167792 11.4375 3.875 C23.83568105 10.24460677 36.71606704 10.39722337 50.3125 10.0625 C52.54500738 10.01453833 54.77724702 9.97138441 57.01005554 9.94029236 C59.00079593 9.911768 60.99127855 9.8666583 62.98168945 9.82055664 C66 10 66 10 68 12 C68.4375 14.9375 68.4375 14.9375 68 18 C62.8074696 22.84636171 53.39072322 23.44345515 46.53515625 23.25 C28.87837339 21.50880724 14.47561413 13.65040942 0 4 C0 2.68 0 1.36 0 0 Z " fill="#000000" transform="translate(224,486)"/>
<path d="M0 0 C0.3934369 3.35329296 0.17847364 4.73208719 -1.72265625 7.5859375 C-2.88087891 8.96652344 -2.88087891 8.96652344 -4.0625 10.375 C-12.44560177 20.98390859 -16.56159775 32.718417 -19.87182617 45.67944336 C-21.27080371 51.03769526 -23.0282901 55.31653429 -26 60 C-28.375 60.125 -28.375 60.125 -31 60 C-33.50428963 57.49571037 -33.32469387 56.59612315 -33.375 53.125 C-32.98513552 37.28419043 -23.15306592 20.75197393 -13 9 C-12.29875 8.071875 -11.5975 7.14375 -10.875 6.1875 C-7.42877134 2.16689989 -5.42621863 0 0 0 Z " fill="#000000" transform="translate(201,334)"/>
<path d="M0 0 C2.25 0.6875 2.25 0.6875 3.625 3.0625 C4.46197213 7.91693833 3.13367599 9.81007239 0.48828125 13.8359375 C-5.76071189 21.79713295 -13.38086178 28.70130873 -21.1171875 35.19140625 C-22.76695178 36.70303237 -24.03689993 38.27415871 -25.375 40.0625 C-27.75 42.6875 -27.75 42.6875 -30.9375 43.6875 C-31.865625 43.6875 -32.79375 43.6875 -33.75 43.6875 C-34.41 43.0275 -35.07 42.3675 -35.75 41.6875 C-35.07768912 30.62318388 -22.36543641 19.72188183 -15.09667969 12.11962891 C-12.71674977 9.58868821 -10.48150626 6.93497361 -8.25 4.2734375 C-3.79973716 -0.43178831 -3.79973716 -0.43178831 0 0 Z " fill="#000000" transform="translate(398.75,385.3125)"/>
<path d="M0 0 C2.70703125 1.09765625 2.70703125 1.09765625 4.22265625 3.38671875 C4.82235547 6.74309986 4.36440504 7.69190605 2.45703125 10.47265625 C-4.24840366 19.61090201 -13.87593445 23.93286909 -24.6015625 26.69140625 C-28.24993832 27.24210449 -31.86326541 27.24251076 -35.54296875 27.22265625 C-36.64125 27.22845703 -36.64125 27.22845703 -37.76171875 27.234375 C-43.16625841 27.22436659 -43.16625841 27.22436659 -44.29296875 26.09765625 C-44.54296875 23.66015625 -44.54296875 23.66015625 -44.29296875 21.09765625 C-41.07668342 18.95346603 -39.05127189 18.55233809 -35.29296875 17.84765625 C-26.98268897 15.98358244 -20.49664119 12.52794762 -13.70703125 7.44921875 C-13.08884521 6.98974854 -12.47065918 6.53027832 -11.83374023 6.05688477 C-10.62144233 5.1432296 -9.42221066 4.21190669 -8.23852539 3.26147461 C-5.36633053 1.06974465 -3.65011739 0.10824785 0 0 Z " fill="#000000" transform="translate(363.29296875,436.90234375)"/>
<path d="M0 0 C-0.54742964 3.99342901 -1.67321855 6.26557646 -4.125 9.4375 C-11.53685452 19.7535914 -15.87087628 30.73824654 -19.515625 42.80395508 C-21.01628382 47.64077056 -22.4220325 51.25053951 -26 55 C-28.9375 54.625 -28.9375 54.625 -32 54 C-34.23834189 49.52331621 -33.43406755 44.59022877 -32.1640625 39.9375 C-28.1375289 28.69563437 -13.7051786 0 0 0 Z " fill="#000000" transform="translate(249,250)"/>
<path d="M0 0 C1.4540625 0.0309375 1.4540625 0.0309375 2.9375 0.0625 C3.38115577 19.08281909 3.32701216 36.50820723 -5.0625 54.0625 C-7.0625 56.0625 -7.0625 56.0625 -9.5625 56.3125 C-12.0625 56.0625 -12.0625 56.0625 -14.0625 54.0625 C-14.61633063 47.54041558 -13.19385165 42.20593702 -11.3125 36 C-8.64858139 26.81464466 -6.76528924 17.65528067 -5.26855469 8.21264648 C-5.12192383 7.29040283 -4.97529297 6.36815918 -4.82421875 5.41796875 C-4.70006592 4.59965576 -4.57591309 3.78134277 -4.44799805 2.93823242 C-3.79760511 -0.22640909 -3.3743352 0.06886398 0 0 Z " fill="#000000" transform="translate(323.0625,98.9375)"/>
<path d="M0 0 C4.67912711 1.36269316 7.28176082 4.04870508 10.71484375 7.41015625 C11.37387695 8.04179688 12.03291016 8.6734375 12.71191406 9.32421875 C29.38292829 25.54288676 29.38292829 25.54288676 29.58984375 35.28515625 C29.33984375 38.97265625 29.33984375 38.97265625 28.33984375 39.97265625 C24.45659712 40.13115611 22.40192173 39.88393209 19.4140625 37.3203125 C14.77557073 32.1798597 10.74717392 26.55054208 6.65625 20.97265625 C3.70526921 17.15081266 0.45776882 13.68219395 -2.91015625 10.2265625 C-4.8515995 7.7260876 -5.41331466 6.10806958 -5.66015625 2.97265625 C-4.08730696 0.19703986 -3.17905849 -0.03267755 0 0 Z " fill="#000000" transform="translate(291.66015625,39.02734375)"/>
<path d="M0 0 C2.625 0.375 2.625 0.375 5 1 C6.0273316 3.63887701 6.12523398 4.69933882 5.01806641 7.35742188 C4.50937012 8.21916016 4.00067383 9.08089844 3.4765625 9.96875 C2.6397998 11.4228125 2.6397998 11.4228125 1.78613281 12.90625 C1.19670898 13.9271875 0.60728516 14.948125 0 16 C-1.1052522 18.06818605 -2.2015775 20.14116671 -3.2890625 22.21875 C-4.11277344 23.76949219 -4.11277344 23.76949219 -4.953125 25.3515625 C-6.08237687 27.4781443 -7.20460801 29.60846694 -8.3203125 31.7421875 C-8.866875 32.76570313 -9.4134375 33.78921875 -9.9765625 34.84375 C-10.70480225 36.22336914 -10.70480225 36.22336914 -11.44775391 37.63085938 C-13.08041408 40.12273329 -14.45138445 41.47914205 -17 43 C-20.125 43.3125 -20.125 43.3125 -23 43 C-23.66 42.34 -24.32 41.68 -25 41 C-24.35807093 31.53154618 -18.36349025 24.44580754 -13 17 C-12.50097168 16.30342285 -12.00194336 15.6068457 -11.48779297 14.88916016 C-2.80623466 2.80623466 -2.80623466 2.80623466 0 0 Z " fill="#000000" transform="translate(290,186)"/>
<path d="M0 0 C2.0625 0.4375 2.0625 0.4375 4 1 C4.23783203 2.66675781 4.23783203 2.66675781 4.48046875 4.3671875 C6.63004478 19.58704714 6.63004478 19.58704714 15.875 31.3125 C17.2400614 32.22340599 18.61516164 33.11945183 20 34 C21.33802826 34.95176727 22.67170253 35.9096988 24 36.875 C24.99 37.57625 25.98 38.2775 27 39 C26.67 41.31 26.34 43.62 26 46 C21.39203595 47.43998877 17.3693973 46.88294469 13 45 C4.82883457 39.63164812 1.39318548 32.83394752 -0.59863281 23.51904297 C-1.28984447 19.18089097 -1.24890741 14.88255007 -1.1875 10.5 C-1.18685547 9.59507812 -1.18621094 8.69015625 -1.18554688 7.7578125 C-1.14083759 1.14083759 -1.14083759 1.14083759 0 0 Z " fill="#000000" transform="translate(171,428)"/>
<path d="M0 0 C0.8125 1.625 0.8125 1.625 1 4 C-2.70499414 9.28017129 -7.09406942 12.34007031 -12.5 15.75 C-19.34350219 20.1811694 -25.86600294 24.82655104 -32.2734375 29.86328125 C-35.44726014 32.35050329 -38.69373697 34.69330486 -42 37 C-43.32 36.34 -44.64 35.68 -46 35 C-44.5064441 29.75264026 -41.15654911 26.6596706 -37.375 22.9375 C-36.71491943 22.28354248 -36.05483887 21.62958496 -35.37475586 20.95581055 C-30.68102629 16.40573839 -25.78412472 12.24329542 -20.5625 8.3125 C-19.92554199 7.83224365 -19.28858398 7.3519873 -18.63232422 6.85717773 C-6.08935399 -2.28350775 -6.08935399 -2.28350775 0 0 Z " fill="#000000" transform="translate(179,59)"/>
<path d="M0 0 C0.96985114 2.34380692 1.10887086 3.61045148 0.4230957 6.06420898 C-1 8 -1 8 -3.86645508 8.77368164 C-5.67472778 8.96498657 -5.67472778 8.96498657 -7.51953125 9.16015625 C-8.50115486 9.2741703 -8.50115486 9.2741703 -9.50260925 9.39048767 C-11.60438415 9.63199021 -13.70774941 9.84862513 -15.8125 10.0625 C-18.54938391 10.35563391 -21.28479416 10.66014881 -24.01953125 10.97265625 C-25.0264653 11.08584702 -25.0264653 11.08584702 -26.05374146 11.20132446 C-31.59577705 11.86295107 -36.93463055 13.02226649 -42.3347168 14.41186523 C-45 15 -45 15 -49 15 C-49.33 13.68 -49.66 12.36 -50 11 C-39.99684309 5.4880564 -29.25945829 2.1968934 -18.0625 0.1875 C-17.37744385 0.06366943 -16.6923877 -0.06016113 -15.98657227 -0.18774414 C-4.24445211 -2.12222605 -4.24445211 -2.12222605 0 0 Z " fill="#000000" transform="translate(255,27)"/>
<path d="M0 0 C0.36561899 4.48644965 0.36561899 4.48644965 -1.1875 6.66796875 C-6.39642176 11.03493117 -11.96881171 14.5700749 -17.77661133 18.07226562 C-23.68452533 21.67406543 -28.95288519 25.7971134 -34.23046875 30.26171875 C-37 32 -37 32 -39.86328125 31.76953125 C-40.56839844 31.51558594 -41.27351563 31.26164062 -42 31 C-40.89291115 22.91825141 -30.67539727 16.55110153 -24.5 11.8125 C-6.69553073 -1.62864261 -6.69553073 -1.62864261 0 0 Z " fill="#000000" transform="translate(122,121)"/>
<path d="M0 0 C7.16011299 2.43403274 14.65800169 5.81903379 18.9453125 12.25 C19.2578125 15.3125 19.2578125 15.3125 18.9453125 18.25 C15.9453125 20.25 15.9453125 20.25 14.09765625 20.14453125 C11.11233286 18.90380701 8.99375824 16.99844009 6.5078125 14.9375 C0.46000894 10.14360142 -5.58013175 8.12349255 -13.0546875 6.25 C-15.05994943 5.59933187 -17.06163465 4.93715703 -19.0546875 4.25 C-19.0546875 2.6 -19.0546875 0.95 -19.0546875 -0.75 C-13.81186918 -3.37140916 -5.4878334 -1.34739644 0 0 Z " fill="#000000" transform="translate(441.0546875,373.75)"/>
<path d="M0 0 C-0.4910688 4.45079817 -1.8810829 6.24022242 -5.0625 9.3125 C-9.68174423 14.19612069 -12.43337206 19.23052432 -15.17211914 25.2902832 C-17.25788745 29.8378314 -19.64562929 33.27549184 -23 37 C-24.65 36.67 -26.3 36.34 -28 36 C-29.57379101 30.0615619 -27.85499819 26.27423351 -25 21 C-8.49576271 -2.54872881 -8.49576271 -2.54872881 0 0 Z " fill="#000000" transform="translate(33,55)"/>
<path d="M0 0 C0.875 3.125 0.875 3.125 1 7 C-0.6341702 9.45391681 -2.57642938 11.32497524 -5 13 C-5.66 13 -6.32 13 -7 13 C-7.165 13.94875 -7.33 14.8975 -7.5 15.875 C-9 19 -9 19 -10.703125 19.87890625 C-15.00590833 21.0531391 -18.65250849 21.24214043 -23 20 C-25 18 -25 18 -25.5625 14.75 C-24.88860395 10.25735966 -23.91415779 9.14938831 -20.40234375 6.4921875 C-6.60827724 -2.0758343 -6.60827724 -2.0758343 0 0 Z " fill="#000000" transform="translate(69,4)"/>
<path d="M0 0 C3.05787216 0.43683888 5.8409391 0.94215967 8.75 2 C16.19966075 4.29220331 23.33236052 4.03410088 31.015625 3.2578125 C35.34796714 2.88355258 39.65562275 2.91349691 44 3 C45.0625 4.875 45.0625 4.875 46 7 C44.5647664 9.87046721 42.41089865 10.31105127 39.49609375 11.32421875 C28.44881806 14.31510872 18.04096175 12.92310537 8 7.5 C5.19393042 5.84186798 2.49902882 4.09739919 0 2 C0 1.34 0 0.68 0 0 Z " fill="#000000" transform="translate(15,162)"/>
<path d="M0 0 C1.65 0.33 3.3 0.66 5 1 C5.08040527 1.61931396 5.16081055 2.23862793 5.24365234 2.87670898 C5.61661609 5.73086593 5.99577134 8.58416898 6.375 11.4375 C6.50132812 12.41138672 6.62765625 13.38527344 6.7578125 14.38867188 C7.46622654 19.68406682 8.32230111 24.8627125 9.59521484 30.05322266 C10.2260217 33.08703077 10.25112971 35.9236611 10 39 C9.34 39.66 8.68 40.32 8 41 C5.64778763 40.77236654 4.28141116 40.20564662 2.375 38.8125 C-2.11368837 32.8955926 -1.26480463 25.5387899 -1.1875 18.5 C-1.18685547 17.38496094 -1.18621094 16.26992187 -1.18554688 15.12109375 C-1.15779875 9.94761066 -0.94729972 5.09888206 0 0 Z " fill="#000000" transform="translate(1,108)"/>
</svg>
